<svg width="160" height="160" viewBox="0 0 100 100" fill="none" xmlns="http://www.w3.org/2000/svg" role="img" aria-labelledby="title desc">
  <title id="title">Your Hearts Community logo</title>
  <desc id="desc">Green and orange people forming a heart.</desc>
  <circle cx="28" cy="25" r="8" fill="#89c541"/>
  <path d="M42 35C28 32 15 45 20 68C23 80 38 90 50 95C40 85 36 70 42 55C45 48 48 40 42 35Z" fill="#89c541"/>
  <circle cx="72" cy="25" r="8" fill="#ff914d"/>
  <path d="M58 35C72 32 85 45 80 68C77 80 62 90 50 95C60 85 64 70 58 55C55 48 52 40 58 35Z" fill="#ff914d"/>
  <path d="M50 75C42 65 42 52 50 45C58 52 58 65 50 75Z" fill="url(#heartGradient)"/>
  <defs>
    <linearGradient id="heartGradient" x1="40" y1="45" x2="60" y2="75" gradientUnits="userSpaceOnUse">
      <stop stop-color="#89c541"/>
      <stop offset="1" stop-color="#ff914d"/>
    </linearGradient>
  </defs>
</svg>
